<svg width="33" height="10" viewBox="0 0 33 10" fill="none" xmlns="http://www.w3.org/2000/svg">
<path d="M12.7 4.4C12.7 4.3 12.8 4.3 12.8 4.3C12.8 4.3 13 4.2 13 3.9C13 3.6 13 3.5 12.9 3.5C12.9 3.6 12.8 3.8 12.7 4C12.4 3.6 12.4 3.2 12.3 2.8L12.2 3.1L12.1 3.2H10.3C10.3 3.2 10.2 3.2 10.2 3.1L10.1 2.8C10.1 3.1 9.99999 3.6 9.69999 4C9.69999 3.8 9.59999 3.7 9.49999 3.5C9.49999 3.5 9.39999 3.6 9.39999 3.9C9.39999 4.2 9.59999 4.3 9.59999 4.3L9.69999 4.4C9.79999 5.1 10.4 5.7 11.1 5.7C12 5.7 12.6 5.1 12.7 4.4ZM11.8 3.5C11.9 3.5 12.1 3.6 12.1 3.8C12.1 3.9 12 4.1 11.8 4.1C11.7 4.1 11.5 4 11.5 3.8C11.6 3.6 11.7 3.5 11.8 3.5ZM10.5 3.8C10.5 3.7 10.6 3.5 10.8 3.5C10.9 3.5 11.1 3.6 11.1 3.8C11.1 3.9 11 4.1 10.8 4.1C10.6 4 10.5 3.9 10.5 3.8ZM10.6 4.6V4.5H10.7H11.7H11.8V4.6C11.8 4.9 11.5 5.2 11.2 5.2C10.9 5.1 10.7 4.9 10.6 4.6Z" />
<path d="M11.3 6C11.1 6 10.8 5.9 10.6 5.8L10.5 6.2C11 6.6 11.7 6.6 12.2 6.2L12 5.8C11.7 5.9 11.5 6 11.3 6V6Z" />
<path d="M31.6 0.0999994H16V0.7C16 1.2 15.6 1.6 15.1 1.6H14.7C14.5 1.9 14.2 2.2 13.8 2.4C13.7 2.4 13.7 2.4 13.6 2.4C13.5 2.4 13.4 2.4 13.4 2.3C13.4 2.2 13.2 2 13.3 1.9C13.3 1.8 13.4 1.6 13.4 1.5H13.3C12.8 1.5 12.4 1.1 12.4 0.599999V0H0C2 2.4 5.1 4.7 8.9 6.4C9.1 6.2 9.4 6 9.7 6L10.2 5.9L10.3 5.5C10.3 5.5 10.2 5.5 10.2 5.4C9.7 5.3 9.3 5.2 9 5.1C8.9 5.1 8.9 5 9 4.9C9.1 4.7 9.3 4.3 9.3 4C9.3 3.9 9.2 3.8 9.2 3.6C9.2 3.3 9.2 3.1 9.4 3C9.4 3 9.4 3 9.5 3C9.6 2 10.4 1.3 11.3 1.3C12.3 1.3 13 2.1 13.1 3C13.1 3 13.1 3 13.2 3.1C13.3 3.2 13.4 3.4 13.4 3.7C13.4 3.9 13.4 4 13.3 4.1C13.4 4.4 13.5 4.7 13.6 5C13.6 5.1 13.6 5.1 13.6 5.2C13.3 5.4 12.8 5.5 12.4 5.5C12.4 5.5 12.3 5.5 12.3 5.6L12.4 6L12.9 6.1C13.4 6.2 13.8 6.5 13.9 7L14.1 8.3C22.6 10.5 30.3 8.8 31.8 4.2C32.2 2.9 32.1 1.5 31.6 0.0999994V0.0999994Z" />
</svg>
