<!-- Generated by IcoMoon.io -->
<svg version="1.1" xmlns="http://www.w3.org/2000/svg" width="32" height="32" viewBox="0 0 32 32">
<title>filter-02</title>
<path d="M5.012 31.991l18.837-2.829v-26.289l-18.837-2.829v31.947zM7.496 16.742h7.452v11.247l-7.452 1.104v-12.351zM16.052 27.851v-11.109h5.313v10.281l-5.313 0.828zM21.365 15.638h-5.313v-11.454l5.313 0.828v10.626zM14.948 4.046v11.592h-7.452v-12.765l7.452 1.173z"></path>
<path d="M0.044 29.162h3.933v-26.289h-3.933z"></path>
<path d="M12.395 22.469l-1.173-2.208-1.173 2.208-2.208 1.173 2.208 1.173 1.173 2.208 1.173-2.208 2.208-1.173-2.208-1.173zM11.636 24.056l-0.414 0.759-0.414-0.759-0.759-0.414 0.759-0.414 0.414-0.759 0.414 0.759 0.759 0.414-0.759 0.414z"></path>
<path d="M17.639 9.773l1.035 1.587 1.035-1.587 1.587-1.035-1.587-1.035-1.035-1.587-1.035 1.587-1.587 1.035 1.587 1.035zM18.398 8.462l0.276-0.414 0.276 0.414 0.414 0.276-0.414 0.276-0.276 0.414-0.276-0.414-0.414-0.276 0.414-0.276z"></path>
<path d="M29.3 13.775l-1.173-2.691-1.173 2.691-2.691 1.173 2.691 1.173 1.173 2.691 1.173-2.691 2.691-1.173-2.691-1.173zM28.472 15.293l-0.345 0.828-0.345-0.828-0.828-0.345 0.828-0.345 0.345-0.828 0.345 0.828 0.828 0.345-0.828 0.345z"></path>
</svg>
