<!-- Generated by IcoMoon.io -->
<svg version="1.1" xmlns="http://www.w3.org/2000/svg" width="32" height="32" viewBox="0 0 32 32">
<title>filter-03</title>
<path d="M14.5 17.4c0.3-0.5 6.5-10 6.5-10l-3-0.7c-3.6 5.3-7.1 10.3-7.1 10.3-0.9-0.1-4.3-0.8-4.5-0.8-0.5 0.1-6.3 2.3-6.4 2.4 0.1 0.7 0.4 1.8 0.4 1.8 1.1 0.4 18.5 5.4 18.5 5.4 0.2-0.2 5.1-4.2 5.1-4.2 0-0.6 0.2-2.5 0.2-2.5-0.5-0.2-9.5-1.5-9.7-1.7zM18.7 23c0 0-16.4-4-17-4.2 0 0 4-1.6 4.6-1.8 0 0 3.3 0.6 4 0.7-0.1 0.1-0.6 0.8-0.9 1.1 0 0.2 1 0.6 1.4 0.8 0.5 0.1 1.4 0.1 2 0 0.1-0.1 0.6-0.8 0.9-1.2 0 0 8.2 1.5 8.9 1.5 0 0.1-3.7 2.9-3.9 3.1z"></path>
<path d="M1.5 21.1c0 0 0.6 0 0.7 0l-0.1 5c-0.5 0-1.2-0.1-1.2-0.1s0.5-4.8 0.6-4.9z"></path>
<path d="M3 21.8c0 0 0.6 0 0.7 0l-0.1 5c-0.5 0-1.2-0.1-1.2-0.1s0.6-4.9 0.6-4.9z"></path>
<path d="M4.5 22.2c0 0 0.6 0 0.7 0l-0.1 5c-0.5 0-1.2-0.1-1.2-0.1s0.6-4.9 0.6-4.9z"></path>
<path d="M6.1 22.8c0 0 0.6 0 0.7 0l-0.1 5c-0.5 0-1.2-0.1-1.2-0.1s0.6-4.8 0.6-4.9z"></path>
<path d="M7.7 23.2c0 0 0.6 0 0.7 0l-0.1 5c-0.5 0-1.2-0.1-1.2-0.1s0.6-4.8 0.6-4.9z"></path>
<path d="M9.3 23.8c0 0 0.6 0 0.7 0l-0.1 5c-0.5 0-1.2-0.1-1.2-0.1s0.6-4.9 0.6-4.9z"></path>
<path d="M10.8 24.2c0 0 0.6 0 0.7 0l-0.1 5c-0.5 0-1.2-0.1-1.2-0.1s0.6-4.8 0.6-4.9z"></path>
<path d="M12.3 24.8c0 0 0.6 0 0.7 0l-0.1 5c-0.5 0-1.2-0.1-1.2-0.1s0.6-4.8 0.6-4.9z"></path>
<path d="M14 25.1c0 0 0.6 0 0.7 0l-0.1 5c-0.5 0-1.2-0.1-1.2-0.1s0.5-4.8 0.6-4.9z"></path>
<path d="M15.5 25.8c0 0 0.6 0 0.7 0l-0.1 5c-0.5 0-1.2-0.1-1.2-0.1s0.6-4.9 0.6-4.9z"></path>
<path d="M17 26.2c0 0 0.6 0 0.7 0l-0.1 5c-0.5 0-1.2-0.1-1.2-0.1s0.6-4.9 0.6-4.9z"></path>
<path d="M18.7 26.4c0 0 0.2-0.5 0.6-0.8l0.1 3.9c-0.5 0.5-1.1 0.5-1.1 0.5s0.4-3.6 0.4-3.6z"></path>
<path d="M20.3 25.1c0 0 0.2-0.5 0.6-0.8l0.1 3.9c-0.6 0.5-1.2 0.5-1.2 0.5s0.4-3.5 0.5-3.6z"></path>
<path d="M22 23.7c0 0 0.2-0.5 0.6-0.8l0.1 3.9c-0.6 0.5-1.2 0.5-1.2 0.5s0.5-3.5 0.5-3.6z"></path>
<path d="M27.506 3.839l1.035-0.414c0.207-0.069 0.207-0.414 0-0.483l-1.035-0.414c-0.069 0-0.138-0.069-0.138-0.138l-0.483-1.518c-0.069-0.207-0.414-0.207-0.483 0l-0.483 1.518c0 0.069-0.069 0.138-0.138 0.138l-1.035 0.414c-0.207 0.069-0.207 0.414 0 0.483l1.035 0.414c0.069 0 0.138 0.069 0.138 0.138l0.483 1.518c0.069 0.207 0.414 0.207 0.483 0l0.483-1.518c0 0 0.069-0.069 0.138-0.138z"></path>
<path d="M24.884 11.843l1.035-0.414c0.207-0.069 0.207-0.414 0-0.483l-1.035-0.414c-0.069 0-0.138-0.069-0.138-0.138l-0.483-1.518c-0.069-0.207-0.414-0.207-0.483 0l-0.483 1.518c0 0.069-0.069 0.138-0.138 0.138l-1.104 0.414c-0.207 0.069-0.207 0.414 0 0.483l1.035 0.414c0.069 0 0.138 0.069 0.138 0.138l0.483 1.518c0.069 0.207 0.414 0.207 0.483 0l0.483-1.518c0.069-0.069 0.138-0.138 0.207-0.138z"></path>
<path d="M30.818 8.807l1.035-0.414c0.207-0.069 0.207-0.414 0-0.483l-1.035-0.414c-0.069 0-0.138-0.069-0.138-0.138l-0.483-1.518c-0.069-0.207-0.414-0.207-0.483 0l-0.483 1.518c0 0.069-0.069 0.138-0.138 0.138l-1.035 0.414c-0.207 0.069-0.207 0.414 0 0.483l1.035 0.414c0.069 0 0.138 0.069 0.138 0.138l0.483 1.518c0.069 0.207 0.414 0.207 0.483 0l0.483-1.518c0-0.069 0.069-0.069 0.138-0.138z"></path>
</svg>
