<!-- Generated by IcoMoon.io -->
<svg version="1.1" xmlns="http://www.w3.org/2000/svg" width="32" height="32" viewBox="0 0 32 32">
<title>filter-01</title>
<path d="M19.2 13.9c0.4-0.6 8.5-13 8.5-13l-3.9-1c-4.7 6.8-9.3 13.4-9.3 13.4-1.2-0.2-5.6-1-5.8-1-0.6 0.2-8.2 3-8.3 3.1 0.2 0.9 0.5 2.3 0.5 2.3 1.4 0.5 24.2 7 24.2 7 0.3-0.3 6.6-5.5 6.6-5.5 0.1-0.8 0.2-3.2 0.2-3.2-0.7-0.1-12.4-1.8-12.7-2.1zM24.7 21.2c0 0-21.4-5.2-22.2-5.4 0 0 5.3-2 6-2.3 0 0 4.4 0.8 5.2 1-0.1 0.1-0.8 1.1-1.1 1.4 0 0.3 1.3 0.8 1.9 1s1.9 0.1 2.6 0c0.1-0.1 0.8-1.1 1.1-1.5 0 0 10.6 1.9 11.6 2 0-0.1-4.8 3.6-5.1 3.8z"></path>
<path d="M2.2 18.8c0-0.1 0.8 0 0.9 0.1l-0.2 6.6c-0.7-0.1-1.6-0.2-1.6-0.2s0.8-6.5 0.9-6.5z"></path>
<path d="M4.2 19.6c0-0.1 0.8 0.1 0.9 0.1l-0.2 6.6c-0.7-0.2-1.7-0.3-1.7-0.3s0.9-6.4 1-6.4z"></path>
<path d="M6.1 20.2c0-0.1 0.8 0.1 0.9 0.1l-0.2 6.6c-0.7-0.1-1.6-0.2-1.6-0.2s0.9-6.5 0.9-6.5z"></path>
<path d="M8.3 21c0-0.1 0.8 0 0.9 0.1l-0.2 6.5c-0.7-0.1-1.6-0.2-1.6-0.2s0.8-6.4 0.9-6.4z"></path>
<path d="M10.3 21.5c0-0.1 0.8 0.1 0.9 0.1l-0.2 6.5c-0.7 0-1.6-0.1-1.6-0.1s0.9-6.4 0.9-6.5z"></path>
<path d="M12.4 22.2c0-0.1 0.8 0 0.9 0.1l-0.2 6.6c-0.7-0.1-1.6-0.2-1.6-0.2s0.9-6.4 0.9-6.5z"></path>
<path d="M14.4 22.8c0-0.1 0.8 0 0.9 0.1l-0.2 6.6c-0.7-0.1-1.6-0.2-1.6-0.2s0.8-6.4 0.9-6.5z"></path>
<path d="M16.4 23.6c0-0.1 0.8 0.1 0.9 0.1l-0.2 6.6c-0.7-0.1-1.6-0.2-1.6-0.2s0.8-6.5 0.9-6.5z"></path>
<path d="M18.5 24c0-0.1 0.8 0 0.9 0.1l-0.2 6.6c-0.7-0.1-1.6-0.2-1.6-0.2s0.8-6.4 0.9-6.5z"></path>
<path d="M20.5 24.8c0-0.1 0.8 0.1 0.9 0.1l-0.2 6.6c-0.7-0.1-1.6-0.2-1.6-0.2s0.9-6.4 0.9-6.5z"></path>
<path d="M22.5 25.4c0-0.1 0.8 0 0.9 0.1l-0.2 6.5c-0.7-0.1-1.6-0.2-1.6-0.2s0.9-6.4 0.9-6.4z"></path>
<path d="M24.6 25.6c0 0 0.3-0.6 0.8-1l0.2 5.1c-0.7 0.6-1.6 0.6-1.6 0.6s0.6-4.7 0.6-4.7z"></path>
<path d="M26.7 24c0 0 0.3-0.6 0.8-1l0.2 5.1c-0.7 0.6-1.6 0.6-1.6 0.6s0.6-4.6 0.6-4.7z"></path>
<path d="M28.9 22.2c0 0 0.3-0.6 0.8-1l0.2 5.1c-0.7 0.6-1.6 0.6-1.6 0.6s0.6-4.7 0.6-4.7z"></path>
</svg>
