<!-- Generated by IcoMoon.io -->
<svg version="1.1" xmlns="http://www.w3.org/2000/svg" width="32" height="32" viewBox="0 0 32 32">
<title>filter-07</title>
<path d="M20.537 28.817c0.069 0.414 0.276 0.759 0.621 0.966 0.276 0.138 0.552 0.276 0.828 0.276 0.069 0 0.207 0 0.345 0l0.552-0.138c0.828-0.138 1.311-0.966 1.242-1.794l-0.138-0.966c-0.069-0.414-0.276-0.759-0.621-0.966s-0.759-0.276-1.104-0.207l-0.552 0.138c-0.828 0.138-1.311 0.966-1.242 1.794l0.069 0.897z"></path>
<path d="M3.632 26.747c1.311 0 2.415-0.69 3.036-1.656 0.621 1.104 1.794 1.863 3.174 1.863 1.311 0 2.484-0.69 3.105-1.794 0.69 1.242 2.001 2.001 3.519 2.001 0.69 0 1.311-0.138 1.863-0.483-0.069 0.69-0.138 1.242 0 1.863 0.207 1.104 0.759 2.070 1.725 2.691 0.69 0.483 1.518 0.759 2.346 0.759 0.207 0 0.483 0 0.69-0.069l5.52-0.966c2.139-0.345 3.657-2.415 3.381-4.554 0-0.069 0-0.069 0-0.138 0.069-1.38 0.069-2.415-0.621-4.002-0.207-0.483-0.483-0.897-0.69-1.311-0.414-0.759-0.828-1.38-0.897-2.277-0.138-2.415-0.069-6.072 0.069-8.832 1.242-0.828 2.070-2.208 2.070-3.795v-1.518c0-2.484-2.001-4.485-4.485-4.485h-2.484c-2.484 0-4.485 2.001-4.485 4.485v1.449c0-2.208-1.794-3.933-4.002-3.933s-4.002 1.794-4.002 3.933v0.69c-0.69-0.69-1.587-1.104-2.622-1.104-2.001 0-3.657 1.587-3.657 3.588v1.794c-0.69-0.69-1.587-1.104-2.622-1.104-2.001 0-3.657 1.587-3.657 3.588v9.867c0.069 1.863 1.725 3.45 3.726 3.45zM21.503 4.529c0-1.932 1.587-3.519 3.519-3.519h2.484c1.932 0 3.519 1.587 3.519 3.519v1.518c0 1.311-0.759 2.484-1.794 3.036 0 0-0.069 0-0.069 0-0.483 0.276-1.035 0.414-1.656 0.414h-2.484c-1.932 0-3.519-1.587-3.519-3.519v-1.449zM27.644 16.604c-0.207 0.207-0.483 0.207-0.69 0.069 0 0-0.759-0.621-2.277-0.621s-2.346 0.621-2.346 0.621c-0.138 0.069-0.207 0.069-0.345 0.069s-0.276-0.069-0.345-0.207-0.138-0.483 0.069-0.69c0.069-0.069 1.104-0.897 2.967-0.897s2.898 0.828 2.967 0.897c0.138 0.207 0.138 0.552 0 0.759zM21.848 24.746l5.52-0.966c0.207 0 0.345-0.069 0.552-0.069 0.621 0 1.242 0.207 1.794 0.552 0.69 0.483 1.173 1.242 1.311 2.070 0 0 0 0.069 0 0.069 0 0.138 0 0.345 0 0.552 0 0.069 0 0.138 0.069 0.207-0.138 1.38-1.173 2.553-2.553 2.829l-5.52 0.966c-0.828 0.138-1.656-0.069-2.346-0.552s-1.173-1.242-1.311-2.070c-0.345-1.656 0.759-3.312 2.484-3.588zM13.499 9.083v-3.174c0-1.656 1.38-2.967 2.967-2.967 1.656 0 2.967 1.311 2.967 2.967v17.388c0 1.656-1.38 2.967-2.967 2.967-1.656 0-2.967-1.311-2.967-2.967v-14.214zM7.22 23.159v-14.076c0-1.449 1.173-2.622 2.622-2.622s2.622 1.173 2.622 2.622v14.352c0 1.449-1.173 2.553-2.622 2.553s-2.622-1.173-2.622-2.553v-0.276zM1.010 13.292c0-1.38 1.173-2.553 2.622-2.553s2.622 1.173 2.622 2.553v9.867c0 1.38-1.173 2.553-2.622 2.553s-2.622-1.173-2.622-2.553v-9.867z"></path>
<path d="M23.504 5.081c0.138 0 0.207-0.069 0.345-0.138 0 0 0.828-0.621 2.346-0.621s2.277 0.621 2.277 0.621c0.207 0.207 0.552 0.138 0.69-0.069 0.207-0.207 0.138-0.552-0.069-0.69-0.069-0.069-1.035-0.897-2.967-0.897-1.863 0-2.898 0.828-2.967 0.897-0.207 0.207-0.276 0.483-0.069 0.69 0.138 0.138 0.276 0.207 0.414 0.207z"></path>
</svg>
