<!-- Generated by IcoMoon.io -->
<svg version="1.1" xmlns="http://www.w3.org/2000/svg" width="32" height="32" viewBox="0 0 32 32">
<title>filter-05</title>
<path d="M5.564 18.053v-0.966h-5.589v10.971h5.589v-0.897z"></path>
<path d="M25.091 25.436l6.279-3.174c0.276-0.138 0.552-0.414 0.621-0.759s0-0.69-0.138-0.966c-0.276-0.414-0.828-0.621-1.311-0.483l-7.314 1.656c-0.276 0.414-0.69 0.69-1.242 0.69h-3.933c-0.138 0-0.276-0.138-0.276-0.276s0.138-0.276 0.276-0.276h4.002c0.345 0 0.621-0.207 0.69-0.483 0.069-0.207 0.069-0.483 0-0.69-0.138-0.207-0.345-0.345-0.621-0.414l-4.278-0.69c-0.828-0.138-1.725-0.207-2.553-0.207l-3.243 0.414v5.796l7.314 0.897c1.932 0.207 3.933-0.138 5.727-1.035z"></path>
<path d="M11.36 26.885v-8.556h-5.244v8.556h5.244zM8.807 19.847c0.69 0 1.311 0.552 1.311 1.311s-0.621 1.242-1.311 1.242-1.311-0.552-1.311-1.311 0.552-1.242 1.311-1.242z"></path>
<path d="M15.224 13.637h1.587v0.966h-1.587v-0.966z"></path>
<path d="M19.433 14.603v-10.695h-6.9v10.695h2.070v-1.242c0-0.138 0.138-0.276 0.276-0.276h2.208c0.138 0 0.276 0.138 0.276 0.276v1.242h2.070zM14.258 11.843h-0.621c-0.138 0-0.276-0.138-0.276-0.276s0.138-0.276 0.276-0.276h0.621c0.138 0 0.276 0.138 0.276 0.276s-0.138 0.276-0.276 0.276zM14.258 8.876h-0.621c-0.138 0-0.276-0.138-0.276-0.276s0.138-0.276 0.276-0.276h0.621c0.138 0 0.276 0.138 0.276 0.276s-0.138 0.276-0.276 0.276zM14.258 5.978h-0.621c-0.138 0-0.276-0.138-0.276-0.276s0.138-0.276 0.276-0.276h0.621c0.138 0 0.276 0.138 0.276 0.276s-0.138 0.276-0.276 0.276zM16.328 11.843h-0.621c-0.207 0-0.345-0.138-0.345-0.345s0.138-0.276 0.345-0.276h0.621c0.138 0 0.276 0.138 0.276 0.276s-0.138 0.345-0.276 0.345zM16.328 8.876h-0.621c-0.207 0-0.345-0.138-0.345-0.276s0.138-0.276 0.276-0.276h0.621c0.138 0 0.276 0.138 0.276 0.276 0.069 0.138-0.069 0.276-0.207 0.276zM16.328 5.978h-0.621c-0.138 0-0.276-0.138-0.276-0.276s0.138-0.276 0.276-0.276h0.621c0.138 0 0.276 0.138 0.276 0.276s-0.138 0.276-0.276 0.276zM17.708 5.357h0.621c0.138 0 0.276 0.138 0.276 0.276s-0.138 0.276-0.276 0.276h-0.621c-0.138 0-0.276-0.138-0.276-0.276s0.138-0.276 0.276-0.276zM17.708 8.255h0.621c0.138 0 0.276 0.138 0.276 0.276s-0.138 0.276-0.276 0.276h-0.621c-0.138 0.069-0.276-0.069-0.276-0.207 0-0.207 0.138-0.345 0.276-0.345zM17.708 11.222h0.621c0.138 0 0.276 0.138 0.276 0.276s-0.069 0.345-0.276 0.345h-0.621c-0.138 0-0.276-0.138-0.276-0.345s0.138-0.276 0.276-0.276z"></path>
<path d="M10.877 17.57h10.281c0.138 0 0.276-0.138 0.276-0.276s-0.138-0.345-0.276-0.345h-10.281c-0.138 0-0.276 0.138-0.276 0.276s0.069 0.345 0.276 0.345z"></path>
</svg>
