<!-- Generated by IcoMoon.io -->
<svg version="1.1" xmlns="http://www.w3.org/2000/svg" width="32" height="32" viewBox="0 0 32 32">
<title>filter-10</title>
<path d="M12.7 15.7c0-0.1 0.1-0.1 0.1-0.1s0.2-0.1 0.2-0.4c0-0.3 0-0.4-0.1-0.4 0 0 0 0 0 0 0 0.1-0.1 0.3-0.2 0.5-0.3-0.4-0.3-0.8-0.4-1.2l-0.1 0.3c0 0-0.1 0.1-0.1 0.1h-1.8c0 0-0.1 0-0.1-0.1l-0.1-0.3c0 0.3-0.1 0.8-0.4 1.2 0-0.2-0.1-0.3-0.2-0.5v0c0 0-0.1 0.1-0.1 0.4s0.2 0.4 0.2 0.4c0 0 0.1 0.1 0.1 0.1 0.1 0.7 0.7 1.3 1.4 1.3 0.9 0 1.5-0.6 1.6-1.3zM11.8 14.8c0.1 0 0.3 0.1 0.3 0.3 0 0.1-0.1 0.3-0.3 0.3-0.1 0-0.3-0.1-0.3-0.3 0.1-0.2 0.2-0.3 0.3-0.3zM10.5 15.1c0-0.1 0.1-0.3 0.3-0.3 0.1 0 0.3 0.1 0.3 0.3 0 0.1-0.1 0.3-0.3 0.3-0.2-0.1-0.3-0.2-0.3-0.3zM10.6 15.9c0 0 0-0.1 0-0.1s0.1 0 0.1 0h1c0 0 0.1 0 0.1 0s0 0.1 0 0.1c0 0.3-0.3 0.6-0.6 0.6-0.3-0.1-0.5-0.3-0.6-0.6z"></path>
<path d="M11.3 17.3c-0.2 0-0.5-0.1-0.7-0.2l-0.1 0.4c0.5 0.4 1.2 0.4 1.7 0l-0.2-0.4c-0.3 0.1-0.5 0.2-0.7 0.2z"></path>
<path d="M31.6 11.4h-15.6v0.6c0 0.5-0.4 0.9-0.9 0.9h-0.4c-0.2 0.3-0.5 0.6-0.9 0.8-0.1 0-0.1 0-0.2 0s-0.2 0-0.2-0.1-0.2-0.3-0.1-0.4c0-0.1 0.1-0.3 0.1-0.4h-0.1c-0.5 0-0.9-0.4-0.9-0.9v-0.6h-12.4c2 2.4 5.1 4.7 8.9 6.4 0.2-0.2 0.5-0.4 0.8-0.4l0.5-0.1 0.1-0.4c0 0-0.1 0-0.1-0.1-0.5-0.1-0.9-0.2-1.2-0.3-0.1 0-0.1-0.1 0-0.2 0.1-0.2 0.3-0.6 0.3-0.9 0-0.1-0.1-0.2-0.1-0.4 0-0.3 0-0.5 0.2-0.6 0 0 0 0 0.1 0 0.1-1 0.9-1.7 1.8-1.7 1 0 1.7 0.8 1.8 1.7 0 0 0 0 0.1 0.1s0.2 0.3 0.2 0.6c0 0.2 0 0.3-0.1 0.4 0.1 0.3 0.2 0.6 0.3 0.9 0 0.1 0 0.1 0 0.2-0.3 0.2-0.8 0.3-1.2 0.3 0 0-0.1 0-0.1 0.1l0.1 0.4 0.5 0.1c0.5 0.1 0.9 0.4 1 0.9l0.2 1.3c8.5 2.2 16.2 0.5 17.7-4.1 0.4-1.3 0.3-2.7-0.2-4.1z"></path>
</svg>
