<!-- Generated by IcoMoon.io -->
<svg version="1.1" xmlns="http://www.w3.org/2000/svg" width="32" height="32" viewBox="0 0 32 32">
<title>filter-04</title>
<path d="M5.3 11.2v20.8h21.5v-20.8h-21.5zM16 28.6c-3.3 0-6.1-2.3-6.8-5.4h-1.2v-3.3h1.2c0.7-3.1 3.5-5.4 6.8-5.4 3.9 0 7 3.1 7 7 0 4-3.1 7.1-7 7.1z"></path>
<path d="M5.3 6.4v4.2h21.5v-4.2h-21.5zM10.4 9.6h-3.5v-1.9h3.5v1.9zM19.9 9.2c-0.3 0-0.6-0.3-0.6-0.6s0.3-0.6 0.6-0.6c0.3 0 0.6 0.3 0.6 0.6s-0.3 0.6-0.6 0.6zM21.8 9.2c-0.3 0-0.6-0.3-0.6-0.6s0.3-0.6 0.6-0.6c0.3 0 0.6 0.3 0.6 0.6s-0.3 0.6-0.6 0.6zM23.5 9.2c-0.3 0-0.6-0.3-0.6-0.6s0.3-0.6 0.6-0.6c0.3 0 0.6 0.3 0.6 0.6s-0.2 0.6-0.6 0.6z"></path>
<path d="M21.3 21.6c0 2.9-2.4 5.3-5.3 5.3s-5.3-2.4-5.3-5.3c0-2.9 2.4-5.3 5.3-5.3s5.3 2.3 5.3 5.3z"></path>
<path d="M23.6 6.4h0.5v-0.4c0-0.3-0.1-0.7-0.4-0.9 0.3-0.1 0.4-0.4 0.4-0.6v0c0-0.7-0.6-1.3-1.3-1.3h-13.3c-0.7 0-1.3 0.6-1.3 1.3v0c0 0.3 0.1 0.5 0.4 0.6-0.3 0.2-0.4 0.5-0.4 0.9v0.4h0.5zM8.7 4.4c0-0.4 0.3-0.8 0.8-0.8h13.4c0.4 0 0.8 0.3 0.8 0.8v0c0 0.1-0.1 0.2-0.2 0.2h-14.6c-0.1 0.1-0.2 0-0.2-0.2v0zM8.7 6c0-0.4 0.3-0.8 0.8-0.8h13.4c0.4 0 0.8 0.3 0.8 0.8v0.4h-15v-0.4z"></path>
<path d="M23.8 3.5c0.2-0.1 0.4-0.4 0.4-0.6v0c0-0.7-0.6-1.3-1.3-1.3h-13.4c-0.7 0-1.3 0.6-1.3 1.3v0c0 0.3 0.1 0.5 0.4 0.6zM8.7 2.9c0-0.4 0.3-0.8 0.8-0.8h13.4c0.4 0 0.8 0.3 0.8 0.8v0c0 0.1-0.1 0.2-0.2 0.2h-14.6c-0.1 0-0.2-0.1-0.2-0.2v0zM9.5 3.6h13.4z"></path>
<path d="M23.8 2c0.2-0.1 0.4-0.4 0.4-0.6v0c0-0.7-0.6-1.3-1.3-1.3h-13.4c-0.7-0.1-1.3 0.5-1.3 1.2v0c0 0.3 0.1 0.5 0.4 0.6zM8.7 1.3c0-0.4 0.3-0.8 0.8-0.8h13.4c0.4 0 0.8 0.3 0.8 0.8v0c0 0.1-0.1 0.2-0.2 0.2h-14.6c-0.1 0.1-0.2 0-0.2-0.2v0zM9.5 2.1h13.4z"></path>
</svg>
